<svg width="512" height="512" viewBox="0 0 512 512" fill="none" xmlns="http://www.w3.org/2000/svg">
<path d="M120.5 213V196.5H186.5V213H120.5ZM120.5 295.5H104V213H120.5V295.5ZM186.5 295.5H170V246H153.5V229.5H186.5V295.5ZM120.5 312V295.5H170V312H120.5ZM277.186 295.5V312H194.686V196.5H211.186V295.5H277.186ZM301.871 213V196.5H367.871V213H301.871ZM285.371 213H301.871V229.5H285.371V213ZM301.871 246V229.5H351.371V246H301.871ZM351.371 246H367.871V295.5H351.371V246ZM285.371 279H301.871V295.5H285.371V279ZM351.371 295.5V312H301.871V295.5H351.371ZM458.557 295.5V312H376.057V196.5H392.557V295.5H458.557Z" fill="#245766"/>
<path fill-rule="evenodd" clip-rule="evenodd" d="M394 382V333H442V382H394Z" fill="#245766"/>
<path fill-rule="evenodd" clip-rule="evenodd" d="M86 382H394V431H86V382Z" fill="#245766"/>
<path fill-rule="evenodd" clip-rule="evenodd" d="M37 131H86V382H37V131Z" fill="#245766"/>
<path fill-rule="evenodd" clip-rule="evenodd" d="M86 82H394V131H86V82Z" fill="#245766"/>
<path fill-rule="evenodd" clip-rule="evenodd" d="M442 131V180H394V131H442Z" fill="#245766"/>
<path d="M394 382V333H442V382H394ZM394 382H86M394 382V431H86V382M86 382V131M86 382H37V131H86M86 131H394M86 131V82H394V131M394 131V180H442V131H394Z" stroke="#245766"/>
</svg>
